<svg xmlns="http://www.w3.org/2000/svg" viewBox="0 0 760 540" fill="none" stroke="#15619f" stroke-width="1.1" stroke-linejoin="round">
  <path d="M721.0 295.0 C719.8 308.5 715.7 322.1 711.7 335.2 C707.8 348.4 703.4 361.5 697.4 374.0 C691.3 386.5 684.8 399.2 675.4 410.3 C666.0 421.4 654.2 432.0 640.9 440.6 C627.7 449.2 611.2 456.0 595.8 461.9 C580.3 467.7 563.2 471.5 548.0 475.7 C532.7 480.0 518.3 483.5 504.3 487.6 C490.4 491.6 477.8 496.4 464.4 500.1 C450.9 503.7 437.5 507.9 423.6 509.5 C409.7 511.1 394.9 511.1 381.0 509.7 C367.1 508.3 353.1 503.8 340.0 501.0 C326.9 498.3 315.3 493.8 302.2 493.0 C289.1 492.3 277.1 493.4 261.3 496.7 C245.6 500.1 228.0 507.6 207.8 512.9 C187.7 518.3 163.0 526.4 140.5 528.7 C118.0 531.1 92.2 531.8 73.0 527.0 C53.8 522.3 36.2 512.2 25.2 500.4 C14.3 488.5 9.8 471.3 7.6 455.9 C5.4 440.4 9.9 422.8 12.1 407.8 C14.3 392.7 19.2 378.6 20.8 365.6 C22.5 352.5 22.5 341.2 22.2 329.4 C21.9 317.6 19.1 306.5 19.0 295.0 C18.9 283.5 18.8 271.7 21.6 260.5 C24.4 249.3 29.8 238.2 35.7 227.7 C41.5 217.2 49.7 207.5 56.8 197.6 C63.9 187.7 71.1 178.3 78.1 168.2 C85.0 158.2 90.9 147.6 98.7 137.5 C106.4 127.4 114.2 116.5 124.3 107.6 C134.5 98.6 146.7 90.3 159.7 83.7 C172.7 77.2 188.0 72.8 202.6 68.4 C217.2 64.1 232.5 61.5 247.4 57.5 C262.3 53.5 276.7 49.1 292.2 44.5 C307.6 39.9 323.4 33.3 340.0 29.7 C356.6 26.1 375.1 21.9 392.0 22.9 C408.8 23.8 427.0 27.8 441.2 35.5 C455.4 43.2 467.7 56.5 477.0 69.1 C486.3 81.7 490.9 98.6 496.8 111.3 C502.6 124.1 504.7 136.8 511.9 145.6 C519.1 154.5 527.2 159.7 540.0 164.5 C552.7 169.4 570.7 170.6 588.5 174.8 C606.3 178.9 629.1 182.5 646.8 189.5 C664.6 196.4 682.8 205.8 694.8 216.6 C706.8 227.3 714.5 240.9 718.9 254.0 C723.3 267.1 722.2 281.5 721.0 295.0 Z"/>
  <path d="M700.1 288.8 C699.0 301.3 695.2 313.7 691.6 325.8 C687.9 337.9 683.9 349.9 678.4 361.4 C672.8 372.9 666.8 384.6 658.2 394.8 C649.5 405.0 638.7 414.7 626.5 422.6 C614.4 430.5 599.3 436.7 585.0 442.1 C570.8 447.5 555.1 450.9 541.2 454.9 C527.2 458.8 513.9 462.0 501.1 465.7 C488.3 469.4 476.7 473.8 464.4 477.2 C452.0 480.6 439.7 484.4 426.9 485.9 C414.2 487.3 400.6 487.4 387.8 486.1 C375.0 484.8 362.2 480.7 350.1 478.1 C338.0 475.5 327.4 471.4 315.4 470.7 C303.3 470.1 292.3 471.1 277.8 474.1 C263.4 477.2 247.2 484.1 228.7 489.0 C210.2 493.9 187.5 501.4 166.9 503.5 C146.2 505.7 122.5 506.3 104.8 502.0 C87.2 497.6 71.0 488.4 61.0 477.5 C51.0 466.6 46.8 450.8 44.8 436.6 C42.7 422.4 46.9 406.2 48.9 392.4 C50.9 378.6 55.4 365.6 56.9 353.7 C58.5 341.7 58.5 331.2 58.2 320.4 C57.9 309.6 55.3 299.4 55.2 288.8 C55.1 278.3 55.1 267.5 57.7 257.2 C60.2 246.9 65.2 236.7 70.5 227.0 C75.9 217.4 83.5 208.5 90.0 199.4 C96.5 190.3 103.1 181.6 109.5 172.4 C115.9 163.2 121.3 153.5 128.4 144.2 C135.5 134.9 142.7 124.9 152.0 116.7 C161.3 108.4 172.5 100.8 184.5 94.8 C196.5 88.8 210.5 84.7 223.9 80.7 C237.3 76.7 251.3 74.3 265.0 70.7 C278.7 67.0 292.0 63.0 306.2 58.7 C320.4 54.5 334.8 48.5 350.1 45.1 C365.4 41.8 382.3 38.0 397.8 38.9 C413.3 39.8 430.0 43.4 443.0 50.5 C456.1 57.6 467.4 69.7 476.0 81.3 C484.5 92.9 488.8 108.4 494.1 120.1 C499.4 131.8 501.4 143.5 508.0 151.6 C514.6 159.8 522.1 164.5 533.8 169.0 C545.5 173.4 562.0 174.6 578.3 178.4 C594.7 182.2 615.7 185.5 632.0 191.9 C648.2 198.3 665.0 206.9 676.0 216.8 C687.0 226.7 694.1 239.1 698.1 251.2 C702.2 263.2 701.2 276.4 700.1 288.8 Z"/>
  <path d="M676.2 280.3 C675.2 291.4 671.8 302.5 668.6 313.3 C665.4 324.1 661.8 334.8 656.8 345.1 C651.9 355.3 646.5 365.7 638.8 374.8 C631.1 383.9 621.5 392.6 610.6 399.6 C599.7 406.7 586.3 412.3 573.6 417.0 C560.9 421.8 546.9 424.9 534.4 428.4 C522.0 431.9 510.1 434.8 498.7 438.1 C487.3 441.4 477.0 445.3 465.9 448.3 C454.9 451.3 443.9 454.7 432.6 456.1 C421.2 457.4 409.1 457.4 397.6 456.2 C386.2 455.1 374.8 451.4 364.0 449.1 C353.3 446.9 343.8 443.2 333.1 442.6 C322.3 442.0 312.5 442.9 299.6 445.6 C286.7 448.3 272.3 454.5 255.8 458.9 C239.3 463.2 219.0 469.9 200.6 471.8 C182.2 473.7 161.0 474.3 145.3 470.4 C129.5 466.6 115.1 458.3 106.2 448.6 C97.2 438.9 93.5 424.8 91.7 412.1 C89.9 399.5 93.6 385.0 95.4 372.7 C97.2 360.4 101.2 348.8 102.6 338.1 C103.9 327.4 103.9 318.2 103.7 308.5 C103.4 298.9 101.1 289.7 101.0 280.3 C100.9 270.9 100.9 261.3 103.2 252.1 C105.5 242.9 109.9 233.8 114.7 225.2 C119.5 216.6 126.2 208.7 132.0 200.5 C137.8 192.4 143.7 184.7 149.4 176.5 C155.2 168.3 160.0 159.6 166.3 151.3 C172.6 143.0 179.0 134.1 187.4 126.8 C195.7 119.4 205.6 112.6 216.3 107.2 C227.0 101.9 239.5 98.3 251.5 94.7 C263.4 91.1 275.9 89.0 288.2 85.7 C300.4 82.5 312.2 78.9 324.9 75.1 C337.5 71.3 350.4 65.9 364.0 63.0 C377.7 60.0 392.8 56.6 406.6 57.4 C420.4 58.2 435.3 61.4 446.9 67.7 C458.5 74.1 468.7 84.9 476.3 95.2 C483.9 105.6 487.7 119.4 492.5 129.9 C497.2 140.3 499.0 150.7 504.9 157.9 C510.8 165.2 517.4 169.5 527.9 173.4 C538.3 177.4 553.0 178.4 567.6 181.8 C582.2 185.2 600.9 188.2 615.4 193.9 C629.9 199.6 644.9 207.3 654.7 216.1 C664.5 224.9 670.9 236.0 674.4 246.7 C678.0 257.4 677.2 269.2 676.2 280.3 Z"/>
  <path d="M651.2 270.6 C650.3 280.3 647.4 289.9 644.5 299.3 C641.7 308.7 638.6 318.0 634.3 326.9 C630.0 335.8 625.4 344.8 618.7 352.7 C612.0 360.7 603.6 368.2 594.2 374.3 C584.7 380.4 573.0 385.3 562.0 389.4 C551.0 393.6 538.8 396.3 528.0 399.3 C517.1 402.4 506.8 404.8 496.9 407.7 C487.0 410.6 478.0 414.0 468.5 416.6 C458.9 419.2 449.3 422.2 439.5 423.3 C429.6 424.5 419.0 424.5 409.1 423.5 C399.2 422.5 389.3 419.3 379.9 417.3 C370.6 415.3 362.3 412.1 353.0 411.6 C343.7 411.1 335.1 411.9 323.9 414.3 C312.7 416.6 300.1 422.0 285.8 425.8 C271.5 429.6 253.9 435.4 237.9 437.0 C221.9 438.7 203.5 439.2 189.8 435.8 C176.1 432.5 163.6 425.3 155.8 416.8 C148.1 408.4 144.8 396.2 143.3 385.2 C141.7 374.2 144.9 361.6 146.5 350.9 C148.0 340.2 151.5 330.2 152.7 320.9 C153.9 311.6 153.9 303.5 153.7 295.1 C153.4 286.8 151.4 278.8 151.4 270.6 C151.3 262.5 151.3 254.1 153.3 246.1 C155.2 238.1 159.1 230.2 163.2 222.7 C167.4 215.3 173.3 208.4 178.3 201.3 C183.3 194.3 188.5 187.5 193.4 180.4 C198.4 173.3 202.6 165.7 208.1 158.5 C213.6 151.3 219.1 143.6 226.4 137.2 C233.6 130.8 242.3 124.9 251.5 120.2 C260.8 115.6 271.7 112.5 282.1 109.3 C292.5 106.2 303.3 104.4 314.0 101.6 C324.6 98.7 334.9 95.6 345.9 92.3 C356.8 89.0 368.1 84.3 379.9 81.8 C391.7 79.2 404.9 76.2 416.9 76.9 C428.9 77.6 441.8 80.4 451.9 85.9 C462.0 91.4 470.9 100.8 477.4 109.8 C484.0 118.8 487.4 130.8 491.5 139.9 C495.6 149.0 497.2 158.0 502.3 164.3 C507.4 170.6 513.2 174.3 522.3 177.8 C531.4 181.2 544.1 182.1 556.8 185.0 C569.5 188.0 585.7 190.6 598.3 195.5 C611.0 200.5 623.9 207.1 632.5 214.8 C641.0 222.5 646.5 232.1 649.6 241.4 C652.8 250.7 652.0 261.0 651.2 270.6 Z"/>
  <path d="M625.4 260.1 C624.7 268.2 622.2 276.3 619.8 284.2 C617.5 292.1 614.9 299.9 611.2 307.4 C607.6 314.9 603.7 322.5 598.1 329.2 C592.4 335.8 585.4 342.2 577.4 347.3 C569.5 352.5 559.6 356.5 550.4 360.1 C541.1 363.6 530.9 365.8 521.7 368.4 C512.6 370.9 504.0 373.0 495.6 375.4 C487.3 377.9 479.7 380.7 471.7 382.9 C463.6 385.1 455.6 387.6 447.3 388.6 C439.0 389.5 430.1 389.6 421.7 388.7 C413.4 387.9 405.0 385.2 397.2 383.5 C389.3 381.8 382.4 379.1 374.5 378.7 C366.7 378.3 359.5 378.9 350.1 380.9 C340.6 382.9 330.1 387.4 318.0 390.6 C306.0 393.8 291.2 398.7 277.7 400.1 C264.2 401.5 248.8 401.9 237.3 399.1 C225.7 396.3 215.2 390.2 208.7 383.1 C202.1 376.0 199.4 365.7 198.1 356.5 C196.8 347.2 199.4 336.7 200.8 327.6 C202.1 318.6 205.0 310.2 206.0 302.4 C207.0 294.5 207.0 287.8 206.8 280.7 C206.7 273.7 205.0 267.0 204.9 260.1 C204.8 253.2 204.8 246.2 206.5 239.5 C208.2 232.7 211.4 226.1 214.9 219.8 C218.4 213.5 223.3 207.7 227.6 201.8 C231.8 195.8 236.1 190.2 240.3 184.2 C244.5 178.2 248.0 171.8 252.6 165.8 C257.2 159.7 261.9 153.2 268.0 147.8 C274.1 142.5 281.4 137.5 289.2 133.6 C297.0 129.7 306.1 127.0 314.9 124.4 C323.6 121.8 332.8 120.2 341.7 117.8 C350.7 115.5 359.3 112.8 368.5 110.1 C377.8 107.3 387.2 103.4 397.2 101.2 C407.1 99.0 418.2 96.5 428.3 97.1 C438.4 97.7 449.3 100.1 457.8 104.7 C466.3 109.3 473.7 117.2 479.2 124.8 C484.8 132.4 487.6 142.5 491.1 150.1 C494.5 157.7 495.8 165.3 500.1 170.6 C504.5 175.9 509.3 179.0 517.0 182.0 C524.6 184.9 535.3 185.6 546.0 188.1 C556.7 190.6 570.3 192.7 581.0 196.9 C591.6 201.1 602.5 206.7 609.7 213.1 C616.9 219.6 621.5 227.7 624.1 235.5 C626.7 243.4 626.1 252.0 625.4 260.1 Z"/>
  <path d="M599.1 248.9 C598.5 255.4 596.5 261.9 594.6 268.3 C592.7 274.6 590.6 280.9 587.7 286.9 C584.8 293.0 581.6 299.1 577.1 304.4 C572.6 309.8 566.9 314.9 560.5 319.0 C554.1 323.2 546.2 326.4 538.8 329.2 C531.3 332.1 523.1 333.9 515.7 335.9 C508.4 338.0 501.4 339.7 494.7 341.6 C488.0 343.6 482.0 345.9 475.5 347.6 C469.0 349.4 462.6 351.4 455.9 352.2 C449.2 353.0 442.0 353.0 435.3 352.3 C428.6 351.6 421.9 349.5 415.6 348.1 C409.3 346.8 403.7 344.6 397.4 344.3 C391.1 343.9 385.3 344.4 377.7 346.0 C370.1 347.6 361.6 351.3 351.9 353.8 C342.2 356.4 330.3 360.3 319.5 361.4 C308.7 362.6 296.2 362.9 287.0 360.6 C277.7 358.4 269.2 353.5 264.0 347.8 C258.7 342.1 256.5 333.8 255.5 326.4 C254.4 318.9 256.6 310.4 257.6 303.2 C258.7 295.9 261.1 289.2 261.9 282.9 C262.7 276.6 262.7 271.1 262.5 265.4 C262.4 259.8 261.0 254.4 261.0 248.9 C260.9 243.3 260.9 237.7 262.2 232.3 C263.6 226.9 266.2 221.5 269.0 216.5 C271.8 211.4 275.8 206.7 279.2 202.0 C282.6 197.2 286.1 192.6 289.4 187.8 C292.8 183.0 295.6 177.9 299.3 173.0 C303.1 168.2 306.8 162.9 311.7 158.6 C316.6 154.3 322.5 150.3 328.7 147.1 C335.0 144.0 342.4 141.9 349.4 139.8 C356.4 137.6 363.8 136.4 371.0 134.5 C378.2 132.6 385.1 130.5 392.5 128.2 C400.0 126.0 407.6 122.8 415.6 121.1 C423.6 119.4 432.5 117.3 440.6 117.8 C448.7 118.3 457.5 120.2 464.3 123.9 C471.1 127.6 477.1 134.0 481.6 140.1 C486.0 146.2 488.3 154.3 491.1 160.4 C493.9 166.6 494.9 172.7 498.4 176.9 C501.8 181.2 505.7 183.7 511.9 186.0 C518.0 188.4 526.7 189.0 535.2 191.0 C543.8 193.0 554.8 194.7 563.4 198.1 C571.9 201.4 580.7 205.9 586.4 211.1 C592.2 216.3 595.9 222.8 598.1 229.1 C600.2 235.4 599.7 242.4 599.1 248.9 Z"/>
  <path d="M572.4 237.1 C571.9 242.0 570.4 246.8 569.0 251.6 C567.6 256.3 566.0 261.1 563.8 265.6 C561.6 270.1 559.3 274.7 555.9 278.7 C552.5 282.7 548.3 286.5 543.5 289.6 C538.7 292.7 532.8 295.2 527.2 297.3 C521.6 299.4 515.4 300.7 509.9 302.3 C504.4 303.8 499.2 305.1 494.2 306.5 C489.2 308.0 484.6 309.7 479.8 311.0 C474.9 312.4 470.1 313.9 465.1 314.4 C460.1 315.0 454.7 315.0 449.7 314.5 C444.7 314.0 439.7 312.4 434.9 311.4 C430.2 310.4 426.0 308.8 421.3 308.5 C416.6 308.2 412.2 308.6 406.5 309.8 C400.9 311.0 394.5 313.8 387.2 315.7 C380.0 317.6 371.1 320.5 363.0 321.4 C354.9 322.2 345.5 322.5 338.6 320.8 C331.7 319.1 325.3 315.4 321.4 311.1 C317.5 306.9 315.8 300.7 315.0 295.1 C314.2 289.5 315.8 283.2 316.6 277.7 C317.4 272.3 319.2 267.2 319.8 262.5 C320.4 257.8 320.4 253.7 320.3 249.5 C320.2 245.2 319.2 241.2 319.1 237.1 C319.1 232.9 319.1 228.7 320.1 224.6 C321.1 220.6 323.0 216.6 325.1 212.8 C327.3 209.0 330.2 205.5 332.8 201.9 C335.3 198.4 337.9 195.0 340.4 191.3 C343.0 187.7 345.1 183.9 347.9 180.3 C350.7 176.6 353.5 172.7 357.1 169.5 C360.8 166.2 365.2 163.2 369.9 160.9 C374.6 158.5 380.1 156.9 385.4 155.3 C390.6 153.8 396.1 152.8 401.5 151.4 C406.9 150.0 412.1 148.4 417.7 146.7 C423.2 145.0 428.9 142.7 434.9 141.4 C440.9 140.1 447.6 138.6 453.7 138.9 C459.7 139.3 466.3 140.7 471.4 143.5 C476.5 146.3 481.0 151.0 484.3 155.6 C487.7 160.1 489.4 166.2 491.5 170.8 C493.6 175.4 494.3 180.0 496.9 183.2 C499.5 186.4 502.4 188.3 507.0 190.0 C511.7 191.8 518.1 192.2 524.5 193.7 C531.0 195.2 539.2 196.5 545.6 199.0 C552.0 201.5 558.6 204.9 562.9 208.8 C567.2 212.7 570.0 217.6 571.6 222.3 C573.2 227.0 572.8 232.2 572.4 237.1 Z"/>
  <path d="M545.3 224.8 C545.0 228.0 544.0 231.2 543.1 234.3 C542.1 237.4 541.1 240.5 539.7 243.5 C538.2 246.4 536.7 249.4 534.5 252.1 C532.2 254.7 529.5 257.2 526.3 259.2 C523.2 261.3 519.3 262.9 515.6 264.3 C512.0 265.6 507.9 266.5 504.3 267.5 C500.7 268.6 497.3 269.4 494.0 270.3 C490.7 271.3 487.7 272.4 484.5 273.3 C481.3 274.2 478.2 275.1 474.9 275.5 C471.6 275.9 468.1 275.9 464.8 275.6 C461.5 275.3 458.2 274.2 455.1 273.5 C452.0 272.9 449.2 271.8 446.1 271.6 C443.0 271.5 440.2 271.7 436.5 272.5 C432.8 273.3 428.6 275.1 423.8 276.3 C419.0 277.6 413.2 279.5 407.9 280.1 C402.6 280.6 396.4 280.8 391.9 279.7 C387.3 278.6 383.2 276.2 380.6 273.4 C378.0 270.6 376.9 266.5 376.4 262.8 C375.9 259.2 377.0 255.0 377.5 251.5 C378.0 247.9 379.2 244.6 379.6 241.5 C380.0 238.4 379.9 235.7 379.9 232.9 C379.8 230.1 379.1 227.5 379.1 224.8 C379.1 222.0 379.1 219.3 379.7 216.6 C380.4 213.9 381.7 211.3 383.1 208.8 C384.4 206.3 386.4 204.1 388.1 201.7 C389.7 199.4 391.4 197.1 393.1 194.8 C394.7 192.4 396.1 189.9 398.0 187.5 C399.8 185.1 401.6 182.5 404.0 180.4 C406.5 178.3 409.3 176.3 412.4 174.8 C415.5 173.2 419.1 172.2 422.6 171.1 C426.0 170.1 429.6 169.5 433.2 168.5 C436.7 167.6 440.1 166.6 443.8 165.5 C447.4 164.4 451.2 162.8 455.1 162.0 C459.0 161.1 463.4 160.1 467.4 160.3 C471.4 160.6 475.7 161.5 479.0 163.3 C482.4 165.2 485.3 168.3 487.5 171.3 C489.7 174.3 490.8 178.3 492.2 181.3 C493.6 184.3 494.1 187.3 495.8 189.4 C497.5 191.5 499.4 192.7 502.4 193.9 C505.4 195.0 509.7 195.3 513.9 196.3 C518.1 197.3 523.5 198.1 527.7 199.8 C531.9 201.4 536.2 203.6 539.1 206.2 C541.9 208.7 543.7 212.0 544.8 215.1 C545.8 218.1 545.6 221.6 545.3 224.8 Z"/>
  <path d="M517.9 212.0 C517.8 213.5 517.3 215.0 516.9 216.4 C516.5 217.9 516.0 219.3 515.3 220.7 C514.6 222.1 513.9 223.5 512.9 224.7 C511.9 225.9 510.6 227.1 509.1 228.0 C507.6 229.0 505.8 229.7 504.1 230.4 C502.4 231.0 500.6 231.4 498.9 231.9 C497.2 232.4 495.6 232.7 494.1 233.2 C492.5 233.6 491.2 234.2 489.7 234.6 C488.2 235.0 486.7 235.4 485.2 235.6 C483.7 235.8 482.0 235.8 480.5 235.6 C479.0 235.5 477.4 235.0 476.0 234.7 C474.6 234.4 473.3 233.9 471.8 233.8 C470.4 233.7 469.1 233.8 467.3 234.2 C465.6 234.6 463.7 235.4 461.5 236.0 C459.2 236.6 456.5 237.5 454.1 237.7 C451.6 238.0 448.7 238.0 446.6 237.5 C444.5 237.0 442.6 235.9 441.4 234.6 C440.2 233.3 439.7 231.4 439.4 229.7 C439.2 228.0 439.7 226.1 439.9 224.4 C440.2 222.7 440.7 221.2 440.9 219.8 C441.1 218.3 441.1 217.1 441.0 215.8 C441.0 214.5 440.7 213.3 440.7 212.0 C440.7 210.7 440.7 209.4 441.0 208.2 C441.3 207.0 441.9 205.8 442.5 204.6 C443.2 203.4 444.1 202.4 444.8 201.3 C445.6 200.2 446.4 199.2 447.2 198.1 C448.0 197.0 448.6 195.8 449.5 194.7 C450.3 193.6 451.2 192.4 452.3 191.4 C453.4 190.4 454.7 189.5 456.2 188.8 C457.6 188.0 459.3 187.6 460.9 187.1 C462.5 186.6 464.2 186.3 465.8 185.9 C467.5 185.4 469.0 185.0 470.7 184.4 C472.4 183.9 474.2 183.2 476.0 182.8 C477.8 182.4 479.9 182.0 481.7 182.1 C483.6 182.2 485.6 182.6 487.1 183.5 C488.7 184.3 490.1 185.8 491.1 187.2 C492.1 188.5 492.6 190.4 493.2 191.8 C493.9 193.2 494.1 194.6 494.9 195.6 C495.7 196.5 496.6 197.1 498.0 197.6 C499.4 198.2 501.4 198.3 503.3 198.8 C505.3 199.2 507.8 199.6 509.8 200.4 C511.7 201.2 513.7 202.2 515.0 203.4 C516.3 204.6 517.2 206.0 517.7 207.5 C518.2 208.9 518.0 210.5 517.9 212.0 Z"/>
</svg>
